#format: frame checksums
#version: 2
#hash: MD5
#tb 0: 1/8000
#media_type 0: audio
#codec_id 0: pcm_s16le
#sample_rate 0: 8000
#channel_layout_name 0: mono
#stream#, dts,        pts, duration,     size, hash
0,          0,          0,    10920,    21840, 517dd6d1ce566b998251f0d215fa69c0
0,      10920,      10920,    10920,    21840, b0268e2bcc67acb524753790123c65fd
0,      21840,      21840,    10920,    21840, a072a222a4910642f12e127b95a4d640
0,      32760,      32760,    10920,    21840, 83bcd3c91cc3b57afdab0cb79a83d7b7
0,      43680,      43680,     4320,     8640, 0125e504113997ac7bcc027616edad55
